<svg xmlns="http://www.w3.org/2000/svg" data-name="Layer 1" viewBox="0 0 32 32"><path d="M30.24253,18.57182l-1.24219-.3822V2.5103a2.50064,2.50064,0,0,0-2.5-2.5h-.00928L18.83139.0396a4.5169,4.5169,0,0,0-.74414.06445l-2.567.44067a2.49457,2.49457,0,0,0-3.31775.17749.49982.49982,0,0,0,0,.707l2.82813,2.8291a.49982.49982,0,0,0,.707,0,2.497,2.497,0,0,0,.49042-2.82l2.0296-.34894a3.479,3.479,0,0,1,.57813-.0498L26.495,1.0103h.00537a1.50038,1.50038,0,0,1,1.5,1.5V17.882l-8.88623-2.734a5.57106,5.57106,0,0,0-1.644-.24707H14.00034V10.00249h2.5a.5.5,0,0,0,0-1h-6a.5.5,0,0,0,0,1h2.5v4.89844H8.82358a.51973.51973,0,0,1-.498-.376L4.87241,2.438A2.47852,2.47852,0,0,0,2.49985.649a2.46748,2.46748,0,0,0-2.37744,3.127l3.9834,14.33887a2.543,2.543,0,0,0,2.44336,1.85742h3.54321l1.78448,8.03027H9.50034a2.50263,2.50263,0,0,0-2.5,2.5v1a.49971.49971,0,0,0,.5.5h13a.49971.49971,0,0,0,.5-.5v-1a2.50263,2.50263,0,0,0-2.5-2.5H16.12381l1.77734-7.998a4.58865,4.58865,0,0,1,.919.1709l9.9834,3.07129a2.46816,2.46816,0,0,0,.728.11133,2.44735,2.44735,0,0,0,.71094-4.78613ZM15.32407,3.13725l-2.00049-2.001a1.50018,1.50018,0,0,1,2.14648,1.35449A1.4888,1.4888,0,0,1,15.32407,3.13725Zm4.67627,27.36523v.5h-12v-.5a1.50164,1.50164,0,0,1,1.5-1.5h9A1.50164,1.50164,0,0,1,20.00034,30.50249Zm-4.90088-2.5H12.90122l-1.77734-8H16.8768ZM30.38217,22.0728a1.43437,1.43437,0,0,1-1.28418.21875l-9.98389-3.07129a5.55933,5.55933,0,0,0-1.644-.248H6.54917a1.54,1.54,0,0,1-1.47949-1.125L1.08628,3.50835A1.4668,1.4668,0,0,1,2.49985,1.649,1.47261,1.47261,0,0,1,3.91049,2.71343L7.36411,14.80034a1.52432,1.52432,0,0,0,1.45947,1.10059h8.64648a4.60283,4.60283,0,0,1,1.3501.20215L29.94809,19.5269a1.44651,1.44651,0,0,1,.43408,2.5459Z"/></svg>