<?xml version="1.0" encoding="iso-8859-1"?>
<!-- Generator: Adobe Illustrator 19.0.0, SVG Export Plug-In . SVG Version: 6.00 Build 0)  -->
<svg version="1.1" id="Layer_1" xmlns="http://www.w3.org/2000/svg" xmlns:xlink="http://www.w3.org/1999/xlink" x="0px" y="0px"
	 viewBox="0 0 512 512" style="enable-background:new 0 0 512 512;" xml:space="preserve">
<g>
	<g>
		<g>
			<path d="M235.979,151.573c-6.813-1.104-13.854-2.24-23.896-2.24c-24.771,0-41.417,22.781-41.417,44.063
				c0,12.837,9.329,38.771,18.592,56.997c-3.078,24.087,2.447,90.03,15.283,106.055c4.125,5.135,8.771,6.219,11.938,6.219
				c20.833,0,22.563-23.469,23.938-42.313c1.917-26.083,4.5-36.99,15.583-36.99s13.667,10.906,15.583,36.99
				c1.375,18.844,3.104,42.313,23.938,42.313c3.167,0,7.813-1.083,11.938-6.219c12.836-16.025,18.361-81.966,15.283-106.053
				c9.264-18.227,18.592-44.161,18.592-56.999c0-21.281-16.646-44.063-41.417-44.063c-10.042,0-17.083,1.135-23.896,2.24
				c-6.146,1-11.958,1.938-20.021,1.938S242.125,152.573,235.979,151.573z M279.438,172.635c6.25-1.01,12.146-1.969,20.479-1.969
				c12.438,0,20.083,13.24,20.083,22.729c0,12.458-16.083,51.313-23.604,59.635c-3.958,4.375-3.604,11.115,0.771,15.063
				c1.521,1.374,3.353,2.055,5.228,2.401c-0.336,20.706-3.775,49.208-7.957,63.964c-0.792-4.938-1.25-11.188-1.583-15.667
				c-1.646-22.604-4.146-56.76-36.854-56.76s-35.208,34.156-36.854,56.76c-0.354,4.677-0.833,11.292-1.417,16.188
				c-4.257-14.59-7.79-43.547-8.129-64.504c1.876-0.346,3.707-1.01,5.233-2.382c4.375-3.948,4.729-10.688,0.771-15.063
				C208.083,244.708,192,205.854,192,193.396c0-9.49,7.646-22.729,20.083-22.729c8.333,0,14.229,0.958,20.479,1.969
				c6.708,1.083,13.646,2.208,23.438,2.208S272.729,173.719,279.438,172.635z"/>
			<path d="M441.24,64.594L259.906,0.609c-2.313-0.812-4.833-0.812-7.146,0L71.427,64.594C67.146,66.104,64,70.155,64,74.706v127.97
				c0,165.638,24.844,226.176,187.5,308.168c1.521,0.771,3.177,1.156,4.833,1.156s3.313-0.385,4.833-1.156
				C423.823,428.853,448,368.315,448,202.677V74.706C448,70.155,445.521,66.104,441.24,64.594z M426.938,202.677
				c0,158.578-20.219,209.92-170.604,286.579C105.948,412.596,85.729,361.254,85.729,202.677V82.288l170.604-60.194l170.604,60.194
				V202.677z"/>
		</g>
	</g>
</g>
<g>
</g>
<g>
</g>
<g>
</g>
<g>
</g>
<g>
</g>
<g>
</g>
<g>
</g>
<g>
</g>
<g>
</g>
<g>
</g>
<g>
</g>
<g>
</g>
<g>
</g>
<g>
</g>
<g>
</g>
</svg>
